# xmcd
#
# Track frame offsets:
#	150
#	10603
#	29937
#	52160
#	68542
#	89020
#	107534
#	128313
#
# Disc length: 1954 seconds
#
# Revision: 1
# Processed by: cddbd v1.5.2PL0 Copyright (c) Steve Scherf et al.
# Submitted via: EZCDAudioConverter 8.3.2.1
#
DISCID=6207a008
DTITLE=Kapuzárás Előtti Pánik Rythm and Blues Band - KEP R.B.B 2003-2019 válogat
DTITLE=ás
DYEAR=1900
DGENRE=Blues
TTITLE0=Intermezzo Bp.
TTITLE1=Alkohol blues
TTITLE2=A nőt akarom
TTITLE3=Elég volt már
TTITLE4=Segít a blues
TTITLE5=Hallgass meg
TTITLE6=Vár rám az út
TTITLE7=Ültem a kocsiban
EXTD=
EXTT0=
EXTT1=
EXTT2=
EXTT3=
EXTT4=
EXTT5=
EXTT6=
EXTT7=
PLAYORDER=
